<svg xmlns="http://www.w3.org/2000/svg" height="128" width="128"><g fill="none" stroke="#1a5c93" stroke-width="5.3" stroke-miterlimit="10"><path d="M111.83 107.78H16.17a9.52 9.52 0 0 1-9.52-9.53V29.73a9.5 9.5 0 0 1 9.52-9.51h95.66a9.5 9.5 0 0 1 9.52 9.51v68.52a9.52 9.52 0 0 1-9.52 9.53z"/><path d="M29.46 52.33l5.06 24.62 12.85-24.62m7.9 0l-3.9 24.62m24.22-23.07c-.72-.55-1.88-1.55-5.05-1.55-3.16 0-6.56 2.23-7.07 5.47-1.03 6.51 12.25 4.96 11.05 12.48-.85 5.39-6 6.67-8.59 6.67-2.56 0-4.77-.78-5.72-1.85m39.53 1.85l-5.8-24.62-13.6 24.62m3.38-6.11H98.3" stroke-linecap="round" stroke-linejoin="round"/></g></svg>